<svg width="277" height="355" viewBox="0 0 277 355" fill="none" xmlns="http://www.w3.org/2000/svg">
    <circle cx="20" cy="20" r="20" fill="#C4C4C4" />
    <circle cx="82" cy="46" r="20" fill="#C4C4C4" />
    <circle cx="82" cy="95" r="20" fill="#C4C4C4" />
    <circle cx="150" cy="75" r="20" fill="#C4C4C4" />
    <circle cx="20" cy="75" r="20" fill="#C4C4C4" />
    <circle cx="20" cy="127" r="20" fill="#C4C4C4" />
    <line x1="32.2553" y1="20.5701" x2="64.2553" y2="39.5701" stroke="black" />
    <line x1="100.255" y1="50.5701" x2="132.255" y2="69.5701" stroke="black" />
    <line x1="37.6442" y1="121.133" x2="63.7895" y2="94.6488" stroke="black" />
    <line x1="99.7565" y1="90.6846" x2="132.262" y2="72.5633" stroke="black" />
    <circle cx="145" cy="192" r="20" fill="#C4C4C4" />
    <circle cx="257" cy="165" r="20" fill="#C4C4C4" />
    <line x1="95.4634" y1="107.812" x2="127.463" y2="186.812" stroke="black" />
    <line x1="170.37" y1="79.6632" x2="242.37" y2="158.663" stroke="black" />
    <line x1="172.568" y1="286.748" x2="241.568" y2="168.748" stroke="black" />
    <line x1="164.835" y1="191.528" x2="241.835" y2="164.528" stroke="black" />
    <line x1="94.7565" y1="207.685" x2="127.262" y2="189.563" stroke="black" />
    <circle cx="152" cy="287" r="20" fill="#C4C4C4" />
    <line x1="95.4321" y1="214.748" x2="134.432" y2="281.748" stroke="black" />
    <line x1="101.757" y1="302.685" x2="134.262" y2="284.563" stroke="black" />
    <line x1="31.7739" y1="61.119" x2="62.9282" y2="40.762" stroke="black" />
    <line x1="30.2553" y1="71.5701" x2="62.2553" y2="90.5701" stroke="black" />
    <circle cx="82" cy="199" r="20" fill="#C4C4C4" />
    <circle cx="20" cy="179" r="20" fill="#C4C4C4" />
    <circle cx="20" cy="231" r="20" fill="#C4C4C4" />
    <line x1="37.6442" y1="225.133" x2="63.7895" y2="198.649" stroke="black" />
    <line x1="30.2553" y1="175.57" x2="62.2553" y2="194.57" stroke="black" />
    <circle cx="85" cy="303" r="20" fill="#C4C4C4" />
    <circle cx="23" cy="283" r="20" fill="#C4C4C4" />
    <circle cx="23" cy="335" r="20" fill="#C4C4C4" />
    <line x1="40.6442" y1="329.133" x2="66.7895" y2="302.649" stroke="black" />
    <line x1="33.2553" y1="279.57" x2="65.2553" y2="298.57" stroke="black" />
</svg>